<svg xmlns="http://www.w3.org/2000/svg" style="display:none">
  <!--
    UI SPRITE — единое хранилище иконок интерфейса.
    icon-favorite-star
    Использование:
    - строки треков альбомов
    - окно Избранное
    - mini-player current track star
    - кнопка Favorites Only
    - showcase списки
  -->
  <symbol id="icon-favorite-star" viewBox="0 0 24 24">
    <path fill="currentColor" d="M12 2.35c.23 0 .45.1.6.28l2.42 3.01c.11.13.26.22.43.26l3.83.86c.5.11.7.72.33 1.11l-2.7 2.86c-.12.12-.17.3-.15.47l.38 3.9c.05.52-.48.9-.94.68l-3.55-1.7a.97.97 0 0 0-.84 0l-3.55 1.7c-.47.22-.99-.16-.94-.68l.38-3.9a.72.72 0 0 0-.15-.47L4.4 8.87c-.37-.39-.17-1 .33-1.11l3.83-.86c.17-.04.32-.13.43-.26l2.42-3.01c.15-.18.37-.28.6-.28Z"/>
  </symbol>
</svg>
