<svg xmlns="http://www.w3.org/2000/svg" style="display:none">
  <!-- icon-favorite-star: строки треков / избранное / мини-плеер / favorites-only -->
<symbol id="icon-favorite-star" viewBox="0 0 24 24">
    <path fill="currentColor" d="M12 2.35 14.86 8.15 21.26 9.08 16.63 13.6 17.72 20 12 16.99 6.28 20 7.37 13.6 2.74 9.08 9.14 8.15 12 2.35Z"/>
  </symbol>

  <!-- icon-download: кнопка скачать трек -->
  <symbol id="icon-download" viewBox="0 0 24 24">
    <path fill="none" stroke="currentColor" stroke-width="2" stroke-linecap="round" stroke-linejoin="round" d="M12 4v10m0 0l-4-4m4 4l4-4M5 18h14"/>
  </symbol>

  <!-- icon-stats: кнопка статистики -->
  <symbol id="icon-stats" viewBox="0 0 24 24">
    <path fill="currentColor" d="M5 11.5a1 1 0 0 1 1-1h1a1 1 0 0 1 1 1V18a1 1 0 0 1-1 1H6a1 1 0 0 1-1-1v-6.5Zm5.5-4a1 1 0 0 1 1-1h1a1 1 0 0 1 1 1V18a1 1 0 0 1-1 1h-1a1 1 0 0 1-1-1V7.5Zm5.5 2a1 1 0 0 1 1-1h1a1 1 0 0 1 1 1V18a1 1 0 0 1-1 1h-1a1 1 0 0 1-1-1V9.5Z"/>
  </symbol>

  <!-- icon-lyrics: полный текст / lyrics modal -->
  <symbol id="icon-lyrics" viewBox="0 0 24 24">
    <path fill="none" stroke="currentColor" stroke-width="2" stroke-linecap="round" stroke-linejoin="round" d="M7 6h10M7 10h10M7 14h7M7 18h6"/>
  </symbol>

  <!-- icon-prev: предыдущий трек -->
  <symbol id="icon-prev" viewBox="0 0 24 24">
    <path fill="currentColor" d="M11 5L4 12l7 7V5zm9 0v14l-7-7 7-7z"/>
  </symbol>

  <!-- icon-play: play -->
  <symbol id="icon-play" viewBox="0 0 24 24">
    <path fill="currentColor" d="M8 5v14l11-7z"/>
  </symbol>

  <!-- icon-pause: pause -->
  <symbol id="icon-pause" viewBox="0 0 24 24">
    <path fill="currentColor" d="M6 4h4v16H6zM14 4h4v16h-4z"/>
  </symbol>

  <!-- icon-stop: stop -->
  <symbol id="icon-stop" viewBox="0 0 24 24">
    <rect x="6" y="6" width="12" height="12" fill="currentColor"/>
  </symbol>

  <!-- icon-next: следующий трек -->
  <symbol id="icon-next" viewBox="0 0 24 24">
    <path fill="currentColor" d="M13 5l7 7-7 7V5zM4 5v14l7-7-7-7z"/>
  </symbol>

  <!-- icon-mute: mute -->
  <symbol id="icon-mute" viewBox="0 0 24 24">
    <path fill="currentColor" d="M3 9v6h4l5 5V4L7 9H3zm13.5 3c0-1.77-1.02-3.29-2.5-4.03v8.05c1.48-.73 2.5-2.25 2.5-4.02z"/>
  </symbol>

  <!-- icon-shuffle: shuffle -->
  <symbol id="icon-shuffle" viewBox="0 0 24 24">
    <path fill="none" stroke="currentColor" stroke-width="2" d="M3 17h2.735a4 4 0 003.43-1.942l3.67-6.116A4 4 0 0116.265 7H21m0 0l-3-3m3 3l-3 3"/>
    <path fill="none" stroke="currentColor" stroke-width="2" d="M3 7h2.735a4 4 0 013.43 1.942l3.67 6.116A4 4 0 0016.265 17H21m0 0l-3 3m3-3l-3-3"/>
  </symbol>

  <!-- icon-repeat: repeat -->
  <symbol id="icon-repeat" viewBox="0 0 24 24">
    <path fill="none" stroke="currentColor" stroke-width="2" d="M17 2l4 4-4 4"/>
    <path fill="none" stroke="currentColor" stroke-width="2" d="M3 11V9a4 4 0 014-4h14"/>
    <path fill="none" stroke="currentColor" stroke-width="2" d="M7 22l-4-4 4-4"/>
    <path fill="none" stroke="currentColor" stroke-width="2" d="M21 13v2a4 4 0 01-4 4H3"/>
    <circle cx="12" cy="12" r="1" fill="currentColor"/>
  </symbol>

  <!-- icon-sleep: таймер сна -->
  <symbol id="icon-sleep" viewBox="0 0 24 24">
    <circle cx="12" cy="12" r="9" fill="none" stroke="currentColor" stroke-width="2"/>
    <path d="M12 7v5l3 3" fill="none" stroke="currentColor" stroke-width="2" stroke-linecap="round" stroke-linejoin="round"/>
  </symbol>

  <!-- icon-gallery-left: стрелка галереи влево -->
  <symbol id="icon-gallery-left" viewBox="0 0 34 34">
    <circle cx="17" cy="17" r="16" fill="#23252e" opacity="0.65"/>
    <polyline points="20,10 13,17 20,24" fill="none" stroke="#fff" stroke-width="2.9" stroke-linecap="round" stroke-linejoin="round"/>
  </symbol>

  <!-- icon-gallery-right: стрелка галереи вправо -->
  <symbol id="icon-gallery-right" viewBox="0 0 34 34">
    <circle cx="17" cy="17" r="16" fill="#23252e" opacity="0.65"/>
    <polyline points="14,10 21,17 14,24" fill="none" stroke="#fff" stroke-width="2.9" stroke-linecap="round" stroke-linejoin="round"/>
  </symbol>

  <!-- icon-close: крестик модалки -->
  <symbol id="icon-close" viewBox="0 0 24 24">
    <path fill="currentColor" d="M18.3 5.71a1 1 0 0 0-1.41 0L12 10.59 7.11 5.7A1 1 0 0 0 5.7 7.11L10.59 12l-4.9 4.89a1 1 0 1 0 1.41 1.42L12 13.41l4.89 4.9a1 1 0 0 0 1.42-1.41L13.41 12l4.9-4.89a1 1 0 0 0-.01-1.4z"/>
  </symbol>
  <!-- icon-glass-crack: ваш вариант трещины -->
  <symbol id="icon-glass-crack" viewBox="0 0 1958 1690">
    <path fill="none" stroke="rgba(255,255,255,0.4)" stroke-width="4" d="M901 794 L871 902 M701 1524 Q680 1450 665 1375 L711 1241 L758 1107 L805 973 L852 840 L960 737 L1040 782 Q1068 808 1095 836 Q1102 843 1108 850 Q1110 852 1115 858 Q1116 860 1118 863 Q1118 865 1119 868 Q1119 870 1119 872 Q1119 874 1118 876 Q1117 878 1116 880 Q1117 878 1118 876 Q1118 875 1118 873 Q1118 873 1118 873 L1118 874 Q1118 875 1118 876 L1119 883 Q1121 902 1131 921 Q1138 959 1146 997 L1170 1111 L1146 1078 Q1196 1107 1246 1136 L1304 1209 L1336 1286 Q1324 1261 1312 1235 L1251 1164 Q1200 1136 1149 1108 L1148 1106 Q1130 1030 1114 954 Q1110 935 1106 915 Q1106 913 1106 911 L1106 910 L1106 908 Q1106 906 1106 904 L1106 902 Q1106 900 1106 899 L1106 899 Q1105 898 1105 898 L1104 896 Q1102 893 1101 891 Q1100 889 1100 887 Q1100 886 1100 885 Q1100 884 1100 883 Q1100 883 1100 883 Q1094 876 1087 869 Q1060 842 1031 815 L1032 816 L952 771 L960 770 L852 872 L854 869 L805 1002 L755 1135 L705 1268 L655 1400 L688 1476 Z"/>
    <path fill="none" stroke="rgba(255,255,255,0.2)" stroke-width="2" d="M1048 857 Q1035 850 1021 837 L1001 798 L1000 796 L1002 795 L1038 772 L1036 775 L1035 720 L1039 724 L997 719 L1003 720 Q970 718 937 716 L944 710 L940 765 L939 771 L933 771 L803 783 L804 769 L862 782 L868 783 L868 789 L868 818 L859 811 L902 800 L904 800 L905 800 L953 811 L961 813 L957 820 L931 864 L931 864 L922 858 L972 815 Q989 800 1006 786 L1007 785 L1009 786 L1047 809 Q1060 817 1074 825 L1048 857 Z"/>
  </symbol>
</svg>
